<svg width="256" height="256" viewBox="0 0 256 256" fill="none" xmlns="http://www.w3.org/2000/svg">
  <rect x="18" y="18" width="220" height="220" rx="52" fill="#121A26"/>
  <rect x="18" y="18" width="220" height="220" rx="52" stroke="#F8FAFC" stroke-width="3"/>
  <circle cx="96" cy="74" r="64" fill="#22D6BA" fill-opacity="0.18"/>
  <circle cx="178" cy="186" r="62" fill="#F77C58" fill-opacity="0.18"/>
  <rect x="94" y="56" width="92" height="108" rx="22" fill="#D5D1D7"/>
  <rect x="64" y="60" width="92" height="108" rx="22" fill="#F4F7FA"/>
  <rect x="84" y="81" width="10" height="70" rx="5" fill="#22D6BA"/>
  <rect x="96" y="112" width="76" height="14" rx="7" fill="#22D6BA"/>
  <path d="M83 159L163 75L184 96L104 180L83 159Z" fill="#FF7B56"/>
  <path d="M184 96L198 89L191 110L184 96Z" fill="#FFD38D"/>
  <circle cx="192" cy="52" r="12" fill="#FFC94D"/>
  <circle cx="52" cy="194" r="12" fill="#FF4F93"/>
</svg>
